<svg width="19" height="23" viewBox="0 0 19 23" fill="none" xmlns="http://www.w3.org/2000/svg">
<path d="M10.4105 6.34479C11.1105 6.10479 11.6305 5.44479 11.7105 4.70478C11.7605 4.23478 11.6605 3.79479 11.4305 3.43479L10.1505 1.21479C9.96047 0.884785 9.48047 0.884785 9.28047 1.21479L8.00047 3.43479C7.83047 3.73479 7.73047 4.08478 7.73047 4.46479C7.73047 5.78479 9.03047 6.81479 10.4105 6.34479ZM14.2605 16.3848L13.2605 15.3848L12.1805 16.4548C10.8805 17.7548 8.60047 17.7648 7.29047 16.4548L6.22047 15.3848L5.13047 16.4548C4.48047 17.1048 3.61047 17.4648 2.69047 17.4648C1.96047 17.4648 1.29047 17.2348 0.730469 16.8548V20.4648C0.730469 21.5648 1.63047 22.4648 2.73047 22.4648H16.7305C17.8305 22.4648 18.7305 21.5648 18.7305 20.4648V16.8548C17.9805 17.3648 17.0205 17.6048 15.9905 17.3748C15.3305 17.2348 14.7405 16.8648 14.2605 16.3848ZM15.7305 9.46479H10.7305V8.46479C10.7305 7.91478 10.2805 7.46479 9.73047 7.46479C9.18047 7.46479 8.73047 7.91478 8.73047 8.46479V9.46479H3.73047C2.07047 9.46479 0.730469 10.8048 0.730469 12.4648V13.9248C0.730469 14.7748 1.23047 15.5948 2.04047 15.8648C2.77047 16.1048 3.56047 15.9248 4.07047 15.4048L6.21047 13.2748L8.34047 15.4048C9.10047 16.1648 10.3505 16.1648 11.1105 15.4048L13.2505 13.2748L15.3805 15.4048C15.8105 15.8348 16.4105 16.0348 17.0305 15.9548C18.0205 15.8248 18.7205 14.8948 18.7205 13.8948V12.4748C18.7305 10.8048 17.3905 9.46479 15.7305 9.46479Z" fill="#545454"/>
</svg>
