<svg width="30" height="29" viewBox="0 0 30 29" fill="none" xmlns="http://www.w3.org/2000/svg">
<path d="M15.084 0C7.07998 0 0.583984 6.496 0.583984 14.5C0.583984 22.504 7.07998 29 15.084 29C23.088 29 29.584 22.504 29.584 14.5C29.584 6.496 23.088 0 15.084 0ZM15.084 21.75C14.2865 21.75 13.634 21.0975 13.634 20.3V14.5C13.634 13.7025 14.2865 13.05 15.084 13.05C15.8815 13.05 16.534 13.7025 16.534 14.5V20.3C16.534 21.0975 15.8815 21.75 15.084 21.75ZM16.534 10.15H13.634V7.25H16.534V10.15Z" fill="#E1E1E1"/>
</svg>
