<svg width="25" height="29" viewBox="0 0 25 29" fill="none" xmlns="http://www.w3.org/2000/svg">
<path d="M12.4216 29C14.1379 29 15.5423 27.6615 15.5423 26.0256H9.30085C9.30085 26.8145 9.62964 27.571 10.2149 28.1288C10.8001 28.6866 11.5939 29 12.4216 29ZM21.7837 20.0769V12.641C21.7837 8.07539 19.2247 4.25333 14.7621 3.24205V2.23077C14.7621 0.99641 13.7166 0 12.4216 0C11.1265 0 10.081 0.99641 10.081 2.23077V3.24205C5.60282 4.25333 3.05945 8.06051 3.05945 12.641V20.0769L1.04659 21.9954C0.0635718 22.9323 0.750126 24.5385 2.13884 24.5385H22.6887C24.0774 24.5385 24.7795 22.9323 23.7965 21.9954L21.7837 20.0769Z" fill="#E1E1E1"/>
</svg>
